<svg id="svg" version="1.1" xmlns="http://www.w3.org/2000/svg" xmlns:xlink="http://www.w3.org/1999/xlink" width="400" height="400" viewBox="0, 0, 400,400"><g id="svgg"><path id="path0" d="M184.766 0.435 C 80.189 8.746,-0.000 95.358,0.000 200.000 C 0.000 309.137,86.939 397.820,195.958 399.887 C 328.197 402.394,426.150 279.234,393.961 150.929 C 370.396 56.997,281.125 -7.223,184.766 0.435 M264.930 88.922 C 270.269 90.620,272.353 94.510,272.645 103.320 L 272.852 109.570 279.463 109.644 C 286.752 109.726,290.160 110.170,294.294 111.576 C 304.921 115.190,314.641 126.938,316.390 138.281 C 317.239 143.786,316.753 283.050,315.872 286.719 C 312.708 299.894,302.430 309.801,289.063 312.562 C 285.522 313.293,111.832 313.344,108.752 312.615 C 97.642 309.985,88.054 300.440,84.307 288.281 L 83.404 285.352 83.296 211.929 C 83.175 128.488,82.882 136.035,86.519 128.711 C 93.152 115.350,103.239 109.793,121.143 109.638 L 127.246 109.585 127.421 103.514 C 127.730 92.778,131.228 88.477,139.648 88.477 C 148.036 88.477,151.165 92.332,151.536 103.125 L 151.758 109.570 199.849 109.696 L 247.941 109.823 248.149 103.837 C 248.593 91.128,254.727 85.676,264.930 88.922 M114.063 133.432 C 110.923 134.262,109.005 135.760,107.622 138.464 L 106.445 140.765 106.445 210.910 C 106.445 286.398,106.340 282.405,108.409 285.470 C 109.621 287.266,111.539 288.589,114.063 289.372 C 116.896 290.252,282.929 290.419,285.804 289.545 C 288.736 288.654,291.077 286.753,292.374 284.207 L 293.555 281.891 293.658 212.528 C 293.730 164.304,293.634 142.547,293.343 141.139 C 292.525 137.184,289.854 134.486,285.682 133.399 C 282.338 132.528,117.362 132.560,114.063 133.432 M252.526 166.998 C 257.964 169.628,260.325 176.336,257.702 181.698 C 256.728 183.687,219.851 221.538,199.623 241.309 C 189.741 250.969,184.696 251.097,175.781 241.918 C 173.525 239.595,166.136 232.064,159.359 225.180 C 150.247 215.924,146.795 212.161,146.102 210.727 C 142.349 202.963,147.771 194.827,156.332 195.377 C 160.721 195.659,161.347 196.152,174.908 209.996 L 187.304 222.651 214.843 194.946 C 238.704 170.941,242.618 167.160,244.141 166.639 C 246.456 165.846,250.503 166.020,252.526 166.998 " stroke="none" fill="#d4ecfc" fill-rule="evenodd"></path><path id="path1" d="M258.125 88.284 C 251.329 89.460,248.497 93.875,248.149 103.837 L 247.941 109.823 199.849 109.696 L 151.758 109.570 151.536 103.125 C 151.165 92.332,148.036 88.477,139.648 88.477 C 131.228 88.477,127.730 92.778,127.421 103.514 L 127.246 109.585 121.143 109.638 C 103.239 109.793,93.152 115.350,86.519 128.711 C 82.882 136.035,83.175 128.488,83.296 211.929 L 83.404 285.352 84.307 288.281 C 88.054 300.440,97.642 309.985,108.752 312.615 C 111.832 313.344,285.522 313.293,289.063 312.562 C 302.430 309.801,312.708 299.894,315.872 286.719 C 316.753 283.050,317.239 143.786,316.390 138.281 C 314.641 126.938,304.921 115.190,294.294 111.576 C 290.160 110.170,286.752 109.726,279.463 109.644 L 272.852 109.570 272.645 103.320 C 272.270 92.008,267.164 86.719,258.125 88.284 M285.682 133.399 C 289.854 134.486,292.525 137.184,293.343 141.139 C 293.634 142.547,293.730 164.304,293.658 212.528 L 293.555 281.891 292.374 284.207 C 291.077 286.753,288.736 288.654,285.804 289.545 C 282.929 290.419,116.896 290.252,114.063 289.372 C 111.539 288.589,109.621 287.266,108.409 285.470 C 106.340 282.405,106.445 286.398,106.445 210.910 L 106.445 140.765 107.622 138.464 C 109.005 135.760,110.923 134.262,114.063 133.432 C 117.362 132.560,282.338 132.528,285.682 133.399 M244.141 166.639 C 242.618 167.160,238.704 170.941,214.843 194.946 L 187.304 222.651 174.908 209.996 C 161.347 196.152,160.721 195.659,156.332 195.377 C 147.771 194.827,142.349 202.963,146.102 210.727 C 146.795 212.161,150.247 215.924,159.359 225.180 C 166.136 232.064,173.525 239.595,175.781 241.918 C 184.696 251.097,189.741 250.969,199.623 241.309 C 219.851 221.538,256.728 183.687,257.702 181.698 C 261.948 173.019,253.360 163.482,244.141 166.639 " stroke="none" fill="#2585eb" fill-rule="evenodd"></path></g></svg>